<svg width="659" height="574" viewBox="0 0 659 574" fill="none" xmlns="http://www.w3.org/2000/svg">
<path d="M586.482 185.68C566.346 149.39 546.052 125.787 514.809 100.704C477.902 74.0686 458.526 65.6349 423.563 54.5748C349.62 37.5705 306.393 36.8181 223.329 65.053C132.384 106.323 62.0137 184.877 65.901 302.216C69.788 419.556 178.803 510.29 289.791 529.286C435.059 546.447 537.28 477.659 581.613 397.069C583.615 393.33 585.567 389.527 587.468 385.658C585.646 389.484 583.691 393.289 581.613 397.069C524.364 503.982 425.982 557.95 289.791 551.778C103.041 530.257 30.9796 403.675 23.9389 300.299C23.7358 178.795 93.5734 87.9693 195.026 45.2467C295.001 3.7172 397.653 24.6736 448.627 50.7413C518.588 87.2798 549.567 116.028 586.482 185.68Z" fill="#00C2DD"/>
<path d="M586.482 185.68C566.346 149.39 546.052 125.787 514.809 100.704C477.902 74.0686 458.526 65.6349 423.563 54.5748C349.62 37.5705 306.393 36.8181 223.329 65.053C132.384 106.323 62.0137 184.877 65.901 302.216C69.788 419.556 178.803 510.29 289.791 529.286C441.874 547.25 546.773 471.017 587.468 385.658C531.199 500.136 430.744 558.167 289.791 551.778C103.041 530.257 30.9796 403.675 23.9389 300.299C23.7358 178.795 93.5734 87.9693 195.026 45.2467C295.001 3.7172 397.653 24.6736 448.627 50.7413C518.588 87.2798 549.567 116.028 586.482 185.68Z" stroke="black"/>
<path d="M592.678 201.781L587.75 226.571L561.559 230.66L588.454 234.749L592.678 258.518L597.325 234.749L624.361 230.66L597.325 225.932L592.678 201.781Z" fill="#00C2DD" stroke="black"/>
<path d="M541.774 153.479L540.538 159.621L533.959 160.634L540.712 161.647L541.774 167.536L542.94 161.647L549.73 160.634L542.94 159.463L541.774 153.479Z" fill="#00C2DD" stroke="black"/>
<path d="M616.024 146.579L613.061 161.766L597.324 164.271L613.487 166.776L616.024 181.336L618.818 166.776L635.062 164.271L618.818 161.374L616.024 146.579Z" fill="#00C2DD" stroke="black"/>
<path d="M296.55 388.728C288.228 431.267 293.416 497.075 294.917 509.784C294.965 510.198 295.001 510.472 295.021 510.622C295.049 510.822 295.052 510.806 295.021 510.622C294.985 510.387 294.894 509.879 294.745 509.191L287.961 478.176L283.737 448.402C281.273 426.235 281.524 413.814 285.145 391.667C287.248 379.538 289.668 372.921 295.328 363.09C296.131 361.694 297.1 360.381 298.187 359.156L300.265 356.82C302.456 354.352 305.208 352.343 308.334 350.925L308.581 350.812C310.13 350.109 311.767 349.573 313.454 349.22C318.112 348.239 322.992 348.663 327.363 350.424L329.5 351.285C331.187 351.967 332.795 352.795 334.302 353.761L337.535 355.831C338.656 356.55 339.715 357.339 340.709 358.198L346.28 363.008C347.389 363.966 348.411 365.006 349.335 366.115L357.522 375.95L367.66 390.645L375.968 405.851L384.276 423.485L391.176 441.119L398.217 460.286L376.954 416.712L364.563 394.734L352.329 377.907C351.38 376.604 350.304 375.382 349.113 374.26L342.779 368.288C340.977 366.588 338.924 365.124 336.679 363.935L332.348 361.643C328.585 359.652 324.2 358.85 319.88 359.366C313.946 360.074 308.694 363.197 305.607 367.851L303.464 371.078C302.611 372.364 301.887 373.713 301.296 375.114L298.944 380.678L296.55 388.728Z" fill="#003399"/>
<path d="M296.55 388.728C288.228 431.267 293.416 497.075 294.917 509.784C295.111 511.445 295.103 510.829 294.745 509.191L287.961 478.176L283.737 448.402C281.273 426.235 281.524 413.814 285.145 391.667C287.248 379.538 289.668 372.921 295.328 363.09C296.131 361.694 297.1 360.381 298.187 359.156L300.265 356.82C302.456 354.352 305.208 352.343 308.334 350.925L308.581 350.812C310.13 350.109 311.767 349.573 313.454 349.22C318.112 348.239 322.992 348.663 327.363 350.424L329.5 351.285C331.187 351.967 332.795 352.795 334.302 353.761L337.535 355.831C338.656 356.55 339.715 357.339 340.709 358.198L346.28 363.008C347.389 363.966 348.411 365.006 349.335 366.115L357.522 375.95L367.66 390.645L375.968 405.851L384.276 423.485L391.176 441.119L398.217 460.286L376.954 416.712L364.563 394.734L352.329 377.907C351.38 376.604 350.304 375.382 349.113 374.26L342.779 368.288C340.977 366.588 338.924 365.124 336.679 363.935L332.348 361.643C328.585 359.652 324.2 358.85 319.88 359.366C313.946 360.074 308.694 363.197 305.607 367.851L303.464 371.078C302.611 372.364 301.887 373.713 301.296 375.114L298.944 380.678L296.55 388.728Z" stroke="black"/>
<path d="M364.563 169.452C364.563 169.452 334.992 177.246 306.407 172.007C314.417 176.779 320.187 179.188 335.274 182.485C345.553 184.019 354.928 184.221 366.816 183.252C381.871 181.455 390.351 180.163 405.539 177.374C426.478 174.875 439.016 172.379 449.754 183.891C461.3 202.42 464.432 223.338 457.498 287.013C454.637 306.111 452.511 316.755 448.346 335.698C444.347 350.702 442.513 359.355 437.362 374.544C432.211 389.729 407.344 459.284 409.622 454.919C437.945 405.659 452.162 376.604 472.565 320.492C475.325 312.498 476.753 308.023 479.184 300.046C481.918 289.819 483.411 283.928 485.943 272.956C489.643 254.964 491.268 244.716 493.124 226.059C493.597 215.28 493.555 209.237 493.124 198.458C490.927 182.963 489.463 177.887 486.647 172.007C482.743 163.527 479.471 159.578 471.861 153.862C462.928 149.062 457.068 147.684 444.966 147.729C433.498 148.409 426.328 149.577 410.749 154.629C393.142 161.054 383.057 164.341 364.563 169.452Z" fill="#003399" stroke="black"/>
<path d="M250.927 160.124C267.965 176.352 297.535 200.759 336.681 203.953C326.822 205.042 320.964 205.124 309.927 204.337C288.614 202.692 276.666 199.012 255.292 188.875C233.915 178.357 222.317 172.974 209.387 173.669C200.33 176.099 195.12 177.893 185.168 186.703C174.266 198.961 171.099 207.892 168.834 226.187C168.249 252.552 172.746 269.069 181.788 298.897L209.106 364.832L276.696 504.499C239.523 453.797 217.177 426.319 186.013 368.666C154.275 303.586 142.959 271.18 139.826 227.593C138.317 197.212 141.378 182.713 154.048 163.446C169.115 143.64 180.375 137.873 205.022 138.017C221.454 139.315 231.713 145.177 250.927 160.124Z" fill="#003399" stroke="black"/>
</svg>
