<svg width="578" height="552" viewBox="0 0 578 552" fill="none" xmlns="http://www.w3.org/2000/svg">
<rect width="578" height="552" rx="40" fill="#003399"/>
<path d="M461.339 191.291C447.832 164.887 434.22 147.714 413.262 129.465C388.506 110.085 375.51 103.949 352.057 95.9023C302.458 83.5305 273.463 82.983 217.745 103.526C156.742 133.553 109.54 190.707 112.147 276.079C114.755 361.453 187.879 427.468 262.327 441.289C359.768 453.775 428.335 403.727 458.073 345.092C459.416 342.371 460.725 339.604 462 336.789C460.778 339.573 459.467 342.342 458.073 345.092C419.672 422.879 353.68 462.144 262.327 457.654C137.06 441.995 88.723 349.898 84.0003 274.685C83.8641 186.282 130.709 120.199 198.76 89.1154C265.822 58.8997 334.678 74.147 368.87 93.1132C415.797 119.698 436.577 140.614 461.339 191.291Z" fill="white"/>
<path d="M461.339 191.291C447.832 164.887 434.22 147.714 413.262 129.465C388.506 110.085 375.51 103.949 352.057 95.9023C302.458 83.5304 273.463 82.983 217.745 103.526C156.742 133.553 109.54 190.707 112.147 276.079C114.755 361.453 187.879 427.468 262.327 441.289C364.34 454.359 434.703 398.894 462 336.789C424.257 420.08 356.874 462.302 262.327 457.654C137.06 441.995 88.723 349.898 84.0003 274.684C83.8641 186.282 130.709 120.199 198.76 89.1154C265.822 58.8997 334.678 74.147 368.87 93.1132C415.797 119.698 436.577 140.614 461.339 191.291Z" stroke="white"/>
<path d="M466.316 203L463.099 220.914L446 223.869L463.558 226.824L466.316 244L469.35 226.824L487 223.869L469.35 220.452L466.316 203Z" fill="white" stroke="white"/>
<path d="M431.451 168L430.589 172.369L426 173.09L430.71 173.811L431.451 178L432.264 173.811L437 173.09L432.264 172.257L431.451 168Z" fill="white" stroke="white"/>
<path d="M481.388 163L479.425 173.923L469 175.725L479.707 177.527L481.388 188L483.239 177.527L494 175.725L483.239 173.642L481.388 163Z" fill="white" stroke="white"/>
<path d="M266.822 338.389C261.159 369.625 264.689 417.947 265.71 427.279C265.743 427.583 265.768 427.784 265.781 427.894C265.802 428.03 265.8 428.041 265.781 427.894C265.756 427.722 265.695 427.348 265.593 426.844L260.977 404.069L258.103 382.207C256.426 365.93 256.597 356.81 259.061 340.548C260.492 331.641 262.138 326.783 265.99 319.564C266.536 318.539 267.195 317.575 267.935 316.676L269.349 314.96C270.84 313.148 272.712 311.673 274.839 310.631L275.008 310.549C276.062 310.033 277.175 309.638 278.323 309.38C281.493 308.659 284.814 308.97 287.788 310.263L289.242 310.896C290.39 311.397 291.484 312.005 292.51 312.714L294.71 314.234C295.472 314.762 296.193 315.341 296.869 315.972L300.66 319.504C301.415 320.207 302.11 320.971 302.739 321.786L308.31 329.007L315.208 339.797L320.861 350.962L326.514 363.911L331.209 376.859L336 390.933L321.532 358.938L313.1 342.799L304.776 330.444C304.13 329.487 303.398 328.59 302.587 327.766L298.278 323.381C297.051 322.133 295.654 321.057 294.127 320.185L291.18 318.502C288.62 317.04 285.636 316.45 282.696 316.83C278.659 317.349 275.085 319.642 272.985 323.06L271.526 325.43C270.946 326.374 270.453 327.365 270.051 328.393L268.451 332.478L266.822 338.389Z" fill="white"/>
<path d="M266.822 338.39C261.159 369.625 264.689 417.947 265.71 427.279C265.842 428.499 265.837 428.047 265.593 426.844L260.977 404.07L258.103 382.208C256.426 365.93 256.597 356.81 259.061 340.548C260.492 331.641 262.138 326.783 265.99 319.564C266.536 318.539 267.195 317.575 267.935 316.676L269.349 314.96C270.84 313.148 272.712 311.673 274.839 310.631L275.008 310.549C276.062 310.033 277.175 309.638 278.323 309.38C281.493 308.659 284.814 308.97 287.788 310.263L289.242 310.896C290.39 311.397 291.484 312.005 292.51 312.714L294.71 314.234C295.472 314.762 296.193 315.341 296.869 315.972L300.66 319.504C301.415 320.207 302.11 320.971 302.739 321.786L308.31 329.007L315.208 339.797L320.861 350.963L326.514 363.911L331.209 376.859L336 390.934L321.532 358.938L313.1 342.8L304.776 330.444C304.13 329.487 303.398 328.59 302.587 327.766L298.278 323.381C297.051 322.133 295.654 321.057 294.127 320.185L291.18 318.502C288.62 317.04 285.636 316.45 282.696 316.83C278.659 317.349 275.085 319.643 272.985 323.06L271.526 325.43C270.946 326.374 270.453 327.365 270.051 328.393L268.451 332.478L266.822 338.39Z" stroke="white"/>
<path d="M313.173 179.76C313.173 179.76 293.255 185.415 274 181.614C279.395 185.076 283.282 186.823 293.444 189.216C300.368 190.328 306.684 190.475 314.691 189.772C324.832 188.468 330.544 187.531 340.775 185.508C354.879 183.694 363.324 181.884 370.558 190.235C378.335 203.677 380.445 218.853 375.774 265.047C373.847 278.902 372.415 286.624 369.609 300.366C366.915 311.251 365.68 317.529 362.211 328.548C358.741 339.564 341.991 390.024 343.525 386.857C362.603 351.121 372.18 330.042 385.923 289.335C387.782 283.535 388.744 280.289 390.381 274.502C392.223 267.082 393.229 262.809 394.934 254.849C397.427 241.797 398.521 234.362 399.772 220.827C400.09 213.007 400.062 208.623 399.772 200.804C398.292 189.562 397.305 185.88 395.408 181.614C392.779 175.462 390.575 172.597 385.449 168.45C379.432 164.968 375.484 163.968 367.333 164.001C359.608 164.494 354.778 165.342 344.284 169.007C332.424 173.668 325.631 176.053 313.173 179.76Z" fill="white" stroke="white"/>
<path d="M237.166 173.107C248.657 184.931 268.6 202.712 295 205.039C288.351 205.832 284.4 205.892 276.957 205.318C262.583 204.12 254.525 201.439 240.11 194.054C225.693 186.391 217.871 182.469 209.151 182.976C203.043 184.746 199.529 186.053 192.817 192.471C185.465 201.402 183.329 207.909 181.801 221.238C181.407 240.446 184.44 252.479 190.538 274.21L208.962 322.247L254.545 424C229.475 387.062 214.405 367.042 193.387 325.04C171.983 277.626 164.351 254.017 162.239 222.262C161.221 200.128 163.285 189.565 171.83 175.528C181.991 161.098 189.585 156.897 206.208 157.002C217.289 157.947 224.208 162.218 237.166 173.107Z" fill="white" stroke="white"/>
</svg>
