<svg width="112" height="112" viewBox="0 0 112 112" fill="none" xmlns="http://www.w3.org/2000/svg">
<path d="M48.4624 25.7219C49.7955 25.7219 51.207 25.7219 52.5401 25.7219C53.1674 25.7219 53.2458 25.8787 53.2458 26.4276C53.2458 28.6233 53.2458 30.8189 53.2458 33.0145C53.2458 33.8771 53.4026 34.5829 53.8731 35.367C57.3234 41.2482 60.7737 47.0509 64.1456 52.9321C64.8513 54.1867 65.9491 54.8141 67.439 54.8141C68.3015 54.8141 69.2425 54.8925 70.1051 54.8141C70.8109 54.7356 71.0461 54.9709 71.0461 55.755C70.9677 58.0291 71.0461 60.3031 71.0461 62.5772C71.0461 63.7534 71.6734 64.5376 72.6144 64.5376C73.6338 64.5376 74.2611 63.7534 74.2611 62.5772C74.2611 60.3031 74.2611 57.9507 74.2611 55.6766C74.2611 54.9709 74.4964 54.8141 75.1237 54.8925C75.9079 54.9709 76.7704 54.8925 77.5546 54.8925C79.2013 54.9709 80.3776 54.2652 81.2401 52.7753C84.612 46.9725 87.9839 41.1698 91.4342 35.367C91.9046 34.6613 92.0615 33.8771 92.0615 33.0145C92.0615 30.8189 92.0615 28.6233 92.0615 26.5061C92.0615 25.8787 92.2183 25.7219 92.7672 25.8003C93.9435 25.8787 95.1197 25.8003 96.2959 25.8003C98.8836 25.8003 100.138 24.5457 100.138 21.8795C100.138 18.6645 100.06 15.4495 100.138 12.2344C100.217 10.274 99.5894 8.78416 97.7074 8C80.9265 8 64.1455 8 47.3646 8C46.11 8.78416 45.0906 9.64673 45.0906 11.2935C45.0906 15.0574 45.0906 18.8213 45.0906 22.5853C45.169 24.3104 46.5805 25.7219 48.4624 25.7219ZM87.9055 32.152C82.3379 32.152 76.7704 32.152 71.1245 32.152C70.4188 32.152 69.8699 32.4656 69.4778 33.093C69.1641 33.6419 69.2426 34.1908 69.6346 34.6613C70.0267 35.2102 70.5756 35.367 71.2814 35.367C76.2215 35.367 81.0833 35.367 86.0235 35.367C86.494 35.367 86.8861 35.367 87.5134 35.367C85.7098 38.4252 83.9847 41.405 82.2595 44.3848C81.0049 46.5804 79.7502 48.6977 78.4956 50.8933C78.2603 51.2854 78.0251 51.5206 77.4762 51.5206C74.2612 51.5206 70.9677 51.5206 67.7527 51.5206C67.2822 51.5206 67.0469 51.4422 66.7333 50.9717C63.7535 45.8747 60.8521 40.7777 57.8723 35.7591C57.7939 35.6807 57.7939 35.6023 57.7155 35.367C59.3622 35.367 60.9305 35.367 62.5772 35.367C63.8319 35.367 64.6161 34.6613 64.5376 33.7203C64.5376 32.7793 63.7535 32.152 62.5772 32.152C60.7737 32.152 58.8917 32.152 57.0882 32.152C56.5393 32.152 56.3824 31.9951 56.3824 31.4462C56.3824 29.7211 56.3824 28.0744 56.3824 26.3492C56.3824 25.8003 56.5393 25.6435 57.0882 25.6435C67.439 25.6435 77.7114 25.6435 88.0623 25.6435C88.6112 25.6435 88.768 25.8003 88.768 26.3492C88.768 27.996 88.6896 29.6427 88.768 31.2894C88.8464 31.9951 88.6896 32.152 87.9055 32.152ZM48.4624 11.9208C48.4624 11.3719 48.5408 11.0582 49.2466 11.1366C50.0307 11.215 51.0501 10.823 51.5206 11.2935C51.9127 11.6855 51.6775 12.7049 51.6775 13.4891C51.6775 13.7243 51.6775 13.9596 51.6775 14.2732C51.7559 15.2926 52.3832 15.9984 53.2458 16.0768C54.1868 16.0768 54.8925 15.3711 54.9709 14.2732C55.0494 13.4891 55.0494 12.7049 54.9709 11.9208C54.9709 11.3719 55.0493 11.1366 55.6766 11.1366C58.1075 11.1366 58.1076 11.0582 58.1076 13.5675C58.1076 15.2142 58.6564 16.0768 59.7543 16.0768C60.8521 16.0768 61.401 15.2142 61.401 13.5675C61.401 12.7833 61.0089 11.7639 61.5578 11.2935C62.0283 10.9014 63.0477 11.215 63.8319 11.1366C64.4592 11.0582 64.5376 11.3719 64.5376 11.9208C64.5376 12.7049 64.5376 13.4891 64.5376 14.2732C64.6161 15.2926 65.2434 15.9984 66.1059 15.9984C67.0469 15.9984 67.7527 15.2926 67.7527 14.1948C67.7527 13.3323 67.7527 12.4697 67.7527 11.6071C67.7527 11.215 67.8311 10.9798 68.3016 11.0582H68.38C70.9677 10.9798 70.9677 10.9798 70.9677 13.5675C70.9677 15.1358 71.5166 15.9984 72.6144 15.9984C73.7122 15.9984 74.2611 15.2142 74.2611 13.6459C74.2611 13.0186 74.3395 12.4697 74.2611 11.8424C74.1827 11.215 74.418 11.0582 75.0453 11.1366C75.8294 11.215 76.9273 10.823 77.3978 11.2935C77.7898 11.7639 77.5546 12.7833 77.5546 13.5675C77.5546 15.2142 78.1035 15.9984 79.1229 15.9984C80.2207 15.9984 80.7696 15.2142 80.7696 13.6459C80.7696 12.8618 80.3775 11.6855 80.9265 11.2935C81.4754 10.9014 82.5732 11.215 83.3574 11.1366C83.9063 11.0582 83.9847 11.2935 83.9847 11.7639C83.9847 12.6265 83.9847 13.4891 83.9847 14.3517C83.9847 15.2926 84.6904 15.9984 85.553 15.9984C86.4156 15.9984 87.1997 15.2926 87.1997 14.2732C87.1997 13.4107 87.1997 12.4697 87.1997 11.6071C87.1997 11.215 87.2781 11.0582 87.7486 11.0582C88.4543 11.0582 89.2385 11.0582 89.9442 11.0582C90.4147 11.0582 90.4932 11.215 90.4148 11.6071C90.4148 12.4697 90.4148 13.3323 90.4148 14.1948C90.4148 15.2142 91.1205 15.92 91.9831 15.9984C92.8456 15.9984 93.6298 15.2926 93.6298 14.2732C93.6298 13.4107 93.6298 12.4697 93.6298 11.6071C93.6298 11.215 93.7866 10.9798 94.1787 11.0582C94.2571 11.0582 94.3355 11.0582 94.3355 11.0582C95.1197 11.0582 96.1391 10.823 96.6096 11.215C97.1585 11.6071 96.7664 12.7049 96.7664 13.4891C96.7664 16.1552 96.7664 18.8213 96.7664 21.4091C96.7664 22.1932 96.6096 22.4285 95.8254 22.4285C88.0623 22.4285 80.2991 22.4285 72.536 22.4285C64.7728 22.4285 57.0881 22.4285 49.325 22.4285C48.5409 22.4285 48.3056 22.2716 48.3056 21.4875C48.4624 18.3508 48.4624 15.1358 48.4624 11.9208Z" fill="#52525B"/>
<path d="M103.118 90.2579C98.962 90.2579 94.806 90.2579 90.65 90.2579C88.5328 90.2579 87.1997 91.591 87.1997 93.7082C87.1997 96.0607 87.1997 98.4131 87.1997 100.844C87.1997 101.471 87.0428 101.628 86.4155 101.628C66.498 101.628 46.5804 101.628 26.5845 101.628C25.9572 101.628 25.8003 101.471 25.8003 100.844C25.8787 98.4916 25.8003 96.1391 25.8003 93.865C25.8003 91.591 24.4673 90.2579 22.1932 90.2579C18.194 90.2579 14.1948 90.2579 10.1956 90.2579C9.17625 90.2579 8.47049 90.4932 8 91.4342C8 91.8262 8 92.2183 8 92.532C8.54891 93.3161 9.33308 93.5514 10.2741 93.5514C14.038 93.5514 17.8804 93.5514 21.6443 93.5514C22.3501 93.5514 22.5853 93.7082 22.5853 94.4924C22.5069 96.7664 22.5853 99.1189 22.5853 101.393C22.5853 103.667 23.9184 104.843 26.114 104.843C46.3452 104.843 66.5764 104.843 86.886 104.843C89.1601 104.843 90.4147 103.589 90.4147 101.315C90.4147 99.0405 90.4147 96.7664 90.4147 94.4924C90.4147 93.7082 90.6499 93.5514 91.3557 93.5514C95.0412 93.5514 98.7268 93.5514 102.412 93.5514C102.648 93.5514 102.883 93.5514 103.196 93.5514C104.294 93.473 105 92.9241 105 91.9047C104.922 90.9637 104.216 90.2579 103.118 90.2579Z" fill="#52525B"/>
<path d="M34.7397 78.8876C37.8763 81.9458 37.9547 85.6313 34.8181 88.7679C34.5829 89.0032 34.426 89.16 34.2692 89.3953C33.9555 89.9442 33.8772 90.4931 34.1908 91.042C34.5045 91.6693 34.975 91.9046 35.6807 91.983C36.0728 91.9046 36.4649 91.8261 36.7785 91.5125C40.8561 87.8269 41.8755 82.4163 38.2684 77.8682C37.5627 76.9272 36.6217 76.143 35.8375 75.2805C34.034 73.2417 33.4851 70.9676 34.6613 68.3799C35.1318 67.2821 35.9944 66.4979 36.7785 65.6354C37.4843 64.9296 37.4843 63.9886 36.8569 63.3613C36.308 62.734 35.2886 62.6556 34.6613 63.2045C30.8189 66.4979 29.4074 71.5165 32.3088 76.143C32.9361 77.1624 33.7987 78.025 34.7397 78.8876Z" fill="#52525B"/>
<path d="M40.3072 60.3031C42.4245 62.8124 42.5029 65.7922 40.4641 68.3799C40.072 68.8504 39.6015 69.3209 39.2094 69.7914C38.5821 70.4971 38.6605 71.3597 39.2879 71.987C39.9152 72.6144 40.8562 72.6144 41.4835 72.0655C45.7179 68.3015 46.5021 62.8908 43.0518 58.4996C42.4245 57.637 41.5619 56.9313 40.8562 56.1471C39.2879 54.5004 38.4253 52.6184 38.8958 50.2659C39.2094 48.7761 40.072 47.5998 41.1698 46.5804C41.5619 46.1883 41.954 45.7963 41.954 45.1689C41.954 44.4632 41.7187 43.9143 41.0914 43.679C40.4641 43.3654 39.7583 43.4438 39.2094 43.9143C35.0534 47.5998 34.034 53.0889 37.6411 57.637C38.5037 58.578 39.4447 59.3621 40.3072 60.3031Z" fill="#52525B"/>
<path d="M74.2612 69.6346C74.2612 69.5562 74.2612 69.4778 74.2612 69.3209C74.1827 68.3799 73.5554 67.6742 72.6928 67.6742C71.7519 67.6742 71.0461 68.3015 71.0461 69.3209C71.0461 72.3007 71.0461 75.2805 71.0461 78.1819C71.0461 81.0048 71.0461 83.8278 71.0461 86.7292C71.0461 87.9054 71.6735 88.6896 72.6145 88.6896C73.6339 88.6896 74.2612 87.9054 74.2612 86.7292C74.2612 81.0833 74.2612 75.3589 74.2612 69.6346Z" fill="#52525B"/>
<path d="M50.3444 96.7663C52.6185 96.7663 54.9709 96.7663 57.245 96.7663C59.519 96.7663 61.8715 96.7663 64.1456 96.7663C65.4786 96.7663 66.1844 96.139 66.1844 95.1196C66.1844 94.1002 65.4786 93.5513 64.1456 93.5513C62.0283 93.5513 59.8327 93.5513 57.7155 93.5513C55.2062 93.5513 52.6969 93.5513 50.266 93.5513C48.8545 93.5513 47.992 94.7275 48.5409 95.9037C48.9329 96.6095 49.5603 96.7663 50.3444 96.7663Z" fill="#52525B"/>
<path d="M67.2821 91.1204C67.2821 90.4146 66.89 89.9441 66.3411 89.6305C62.2635 87.278 58.1859 84.9255 54.1083 82.5731C53.7162 82.3378 53.3241 82.181 52.8536 82.2594C52.0695 82.4162 51.599 82.8867 51.4422 83.5925C51.2853 84.3766 51.6774 85.004 52.3831 85.396C55.2061 87.0428 58.0291 88.6895 60.852 90.2578C62.1851 91.0419 63.5181 91.8261 64.8512 92.5318C66.1058 93.1592 67.2821 92.375 67.2821 91.1204Z" fill="#52525B"/>
<path d="M69.4778 89.5521C70.3404 89.0817 70.4972 88.1407 69.9483 87.1997C67.5958 83.0437 65.2434 78.9661 62.8125 74.8884C62.4988 74.3395 62.0283 74.0259 61.401 74.0259C60.0679 74.0259 59.2837 75.3589 59.9895 76.5352C62.342 80.6912 64.6944 84.7688 67.1253 88.8464C67.6742 89.7874 68.6152 90.0226 69.4778 89.5521Z" fill="#52525B"/>
<path d="M80.5344 92.4535C84.6904 90.1011 88.8465 87.6702 92.9241 85.3177C93.5514 85.0041 93.8651 84.4551 93.8651 83.7494C93.8651 82.4163 92.532 81.789 91.199 82.4948C87.1214 84.8472 83.0437 87.1997 78.9661 89.5522C78.0251 90.1011 77.7899 91.0421 78.2604 91.9046C78.7309 92.7672 79.5934 93.0024 80.5344 92.4535Z" fill="#52525B"/>
<path d="M85.6314 75.4374C85.4746 74.8101 85.1609 74.1827 84.4552 73.9475C83.5926 73.7123 82.8869 74.0259 82.4948 74.8101C80.1423 78.8877 77.7899 82.8869 75.5158 86.9645C74.8885 88.0623 75.0454 88.9249 75.9079 89.3954C76.7705 89.9443 77.7115 89.6306 78.3388 88.5328C80.6913 84.5336 82.9653 80.5344 85.3178 76.5352C85.3962 76.3 85.6314 75.9863 85.6314 75.4374Z" fill="#52525B"/>
<path d="M96.8448 80.6128C96.8448 81.4754 97.7074 82.3379 98.57 82.2595C99.4326 82.2595 100.138 81.4754 100.138 80.6128C100.138 79.7502 99.3542 78.9661 98.4916 78.9661C97.629 78.9661 96.8448 79.7502 96.8448 80.6128Z" fill="#52525B"/>
<path d="M46.8156 78.9661C45.953 78.9661 45.0905 79.7502 45.1689 80.6912C45.1689 81.5538 45.953 82.3379 46.8156 82.3379C47.6782 82.3379 48.3839 81.5538 48.3839 80.6912C48.4623 79.7502 47.6782 78.9661 46.8156 78.9661Z" fill="#52525B"/>
<path d="M72.6928 93.4729C71.8303 93.4729 71.1246 94.1786 71.0461 95.1196C71.0461 96.0606 71.6735 96.7664 72.6145 96.7664C73.477 96.7664 74.2612 96.139 74.2612 95.198C74.3396 94.3355 73.5554 93.4729 72.6928 93.4729Z" fill="#52525B"/>
</svg>
