<svg width="112" height="112" viewBox="0 0 112 112" fill="none" xmlns="http://www.w3.org/2000/svg">
<path d="M109.835 70.1054C107.482 68.788 105.883 66.9061 104.848 64.3655C103.812 61.8249 102.213 59.5666 99.8604 58.1551C95.9083 55.7086 91.8622 53.2621 87.7219 51.0979C84.0522 49.1218 79.6296 52.227 79.9119 56.4614C79.9119 56.9319 79.9119 57.2141 79.4414 57.4023C77.1831 58.5315 76.148 60.4134 76.2421 62.954C76.2421 63.3304 76.2421 63.5186 75.8658 63.6127C74.172 64.3655 73.137 65.7769 72.5724 67.5648C70.22 66.2474 68.0558 64.9301 65.7974 63.7068C65.2329 63.4245 65.421 63.0481 65.5151 62.5777C66.9266 58.8138 67.9616 54.8617 68.7144 50.9097C69.5613 46.2049 68.9026 41.9705 65.5151 38.3948C65.1388 38.0185 65.2329 37.7362 65.5151 37.3598C66.9266 35.2897 68.2439 33.3136 69.5613 31.2435C69.8436 30.773 70.22 30.6789 70.7845 30.6789C72.5724 30.6789 74.2661 30.6789 76.054 30.6789C77.3713 30.6789 78.1241 30.0202 78.1241 28.797C78.1241 27.6678 77.3713 27.0092 76.054 27.0092C73.8897 27.0092 71.6314 27.0092 69.4672 27.0092C68.4321 27.0092 67.6794 27.3855 67.1148 28.3265C65.6092 30.5848 64.1037 32.8431 62.5981 35.1015C62.2218 35.666 61.9395 35.7601 61.3749 35.4778C56.576 33.4077 51.9652 34.0664 47.9191 37.2657C47.3545 37.7362 47.0722 37.7362 46.5076 37.2657C43.7788 34.9133 40.5795 34.0664 37.0039 34.3487C35.0279 34.5369 33.24 35.1015 31.5463 36.1365C30.7935 36.607 30.4171 37.2657 30.6053 38.1125C30.7935 38.9594 31.3581 39.4299 32.2991 39.524C32.8636 39.524 33.3341 39.2417 33.8987 38.9594C37.7566 36.8893 42.3674 37.8303 45.1903 41.1236C46.6017 42.8174 47.5427 42.7233 49.0482 41.1236C51.5889 38.2066 55.7291 37.0775 59.2107 38.4889C59.8694 38.7712 59.9634 38.9594 59.5871 39.524C58.6461 40.9354 57.7051 42.3469 56.7642 43.7583C56.0114 44.9816 56.1055 46.0167 57.0465 46.6753C57.9874 47.334 59.0225 47.0517 59.8693 45.8285C60.9044 44.3229 61.9395 42.8174 62.9745 41.1236C64.7624 43.2879 65.5151 45.6403 65.2328 48.3691C64.7624 52.7916 63.5391 57.1201 62.0336 61.2603C61.8454 61.919 61.5631 62.2013 60.8103 62.2954C57.611 62.8599 55.635 65.7769 56.2937 68.788C56.3878 69.0703 56.576 69.4467 56.3878 69.6349C56.1055 69.9172 55.635 69.8231 55.3527 69.6349C54.2236 69.0703 53.4708 68.0353 52.8121 67.0943C51.8711 65.6828 51.2125 64.0832 50.3656 62.4836C49.7069 61.1662 48.6719 60.4134 47.0722 60.4134C45.5667 60.4134 44.5316 61.1662 43.7788 62.3895C43.4965 62.954 43.2143 63.5186 42.932 64.0832C42.0851 65.871 41.1441 67.5648 39.6386 68.9762C38.5094 70.0113 37.6626 70.0113 36.5334 69.0703C35.7806 68.5057 35.2161 67.6589 34.7456 66.9061C32.3932 63.1422 30.9817 58.9079 29.9466 54.6735C29.0998 51.0979 28.1588 47.4281 29.4762 43.7583C29.7584 42.8174 29.0998 41.8764 28.1588 41.6882C27.3119 41.4059 26.2769 41.8764 25.9946 42.8174C25.5241 44.0406 25.1477 45.358 25.2418 46.6753C25.43 53.168 27.2178 59.2843 29.7584 65.2124C30.7935 67.6589 32.205 70.0113 34.181 71.7991C36.7216 74.0574 39.6386 74.0574 42.0851 71.7991C43.5906 70.4818 44.7198 68.788 45.6608 67.0002C46.1312 66.1533 46.5076 65.3065 47.0722 64.2714C47.3545 64.9301 47.5427 65.4006 47.825 65.7769C48.9541 68.0353 50.0833 70.1054 51.9652 71.7991C53.9413 73.4929 56.0114 74.0574 58.4579 72.8342C58.9284 72.646 59.2107 72.646 59.5871 72.8342C62.8804 74.7161 66.1738 76.6921 69.4672 78.5741C69.8436 78.8564 70.0318 79.0446 69.9377 79.515C69.3731 82.8084 70.6905 85.5372 73.5133 87.231C75.6776 88.5483 77.9359 89.7716 80.1942 91.0889C84.3344 93.6295 88.6629 94.1 93.1795 92.4063C96.2847 91.2771 99.2958 91.6535 102.119 93.2531C103.53 94.1 104.942 94.9469 106.447 95.6997C107.576 96.3583 108.705 96.076 109.176 95.1351C109.646 94.1941 109.364 93.159 108.329 92.5004C107.2 91.8417 105.977 91.183 104.942 90.5243C100.613 87.7955 96.0965 87.3251 91.2976 89.1129C88.757 90.0539 86.1223 89.9598 83.6758 88.7365C80.7588 87.231 77.9359 85.5372 75.113 83.8435C74.0779 83.2789 73.6074 82.3379 73.5133 80.9265C75.3953 81.9615 77.089 82.9966 78.7827 83.9376C80.1001 84.6904 81.1352 84.5963 81.7938 83.5612C82.3584 82.5261 81.982 81.5852 80.6647 80.7383C76.5244 78.3859 72.4783 75.9394 68.338 73.587C65.7974 72.1755 63.3509 70.67 60.8103 69.2585C60.0575 68.8821 59.6811 68.2235 59.7752 67.3766C59.8693 66.5297 60.4339 66.0592 61.2808 65.871C61.9395 65.7769 62.41 66.0592 62.9745 66.3415C66.9266 68.5998 70.7845 70.8582 74.7366 73.1165C75.8658 73.7752 76.9008 73.587 77.4654 72.7401C78.1241 71.8932 77.8418 70.8582 76.9008 70.1054C76.0539 69.3526 75.7717 68.4116 76.3362 67.6589C76.9008 66.7179 77.7477 66.7179 78.6887 67.0002C79.8178 67.4707 80.7588 67.1884 81.2293 66.2474C81.6997 65.4006 81.4175 64.5537 80.5706 63.8009C79.7237 63.0481 79.4414 62.1072 80.006 61.3544C80.5706 60.5075 81.4175 60.3193 82.3584 60.6957C83.4876 61.1662 84.4285 60.8839 84.899 60.0371C85.3695 59.1902 85.0872 58.3433 84.2403 57.5905C83.864 57.3083 83.4876 56.9319 83.3935 56.4614C83.2994 55.7086 83.3935 55.144 84.0522 54.6735C84.7108 54.2031 85.4636 54.2031 86.1223 54.6735C89.3216 56.5555 92.4268 58.4374 95.626 60.1311C98.2607 61.5426 100.143 63.6127 101.366 66.4356C102.589 69.4467 104.753 71.705 107.576 73.3047C108.8 73.9633 109.835 73.8692 110.399 72.8342C111.434 71.7991 111.058 70.8582 109.835 70.1054Z" fill="#52525B"/>
<path d="M67.5853 85.161C67.2089 85.161 66.8325 85.161 66.4562 85.161C48.2955 85.161 30.0408 85.161 11.8801 85.161C7.92808 85.161 5.66976 82.9026 5.66976 78.9506C5.66976 61.2604 5.66976 43.5703 5.66976 25.8801C5.66976 21.834 7.83399 19.6698 11.8801 19.6698C28.9116 19.6698 45.9431 19.6698 62.9746 19.6698C63.351 19.6698 63.6332 19.6698 64.0096 19.6698C64.9506 19.5757 65.6093 18.8229 65.6093 17.7878C65.6093 16.6587 64.8565 16 63.351 16C45.9431 16 28.6293 16 11.2215 16C5.95206 16 2 19.9521 2 25.3156C2 43.288 2 61.3545 2 79.327C2 84.7846 5.95205 88.6425 11.3156 88.7366C20.4429 88.7366 29.5703 88.7366 38.6977 88.7366C48.0132 88.7366 57.2347 88.7366 66.5502 88.7366C66.9266 88.7366 67.2089 88.7366 67.5853 88.7366C68.4322 88.6425 69.1849 87.7957 69.1849 86.9488C69.1849 86.0078 68.4322 85.2551 67.5853 85.161Z" fill="#52525B"/>
<path d="M71.4434 19.6698C80.1943 19.6698 88.9453 19.6698 97.6963 19.6698C101.648 19.6698 103.813 21.9281 103.907 25.8801C103.907 36.3249 103.907 46.8637 103.907 57.3084C103.907 58.8139 104.565 59.6608 105.789 59.6608C106.918 59.6608 107.576 58.8139 107.576 57.4025C107.576 51.9449 107.576 46.4873 107.576 41.0297C107.576 35.7603 107.576 30.4909 107.576 25.2215C107.576 20.0462 103.624 16.0941 98.355 16C92.1446 16 86.0283 16 79.818 16C76.9951 16 74.1722 16 71.3493 16C70.126 16 69.3732 16.7528 69.3732 17.8819C69.2791 19.0111 70.0319 19.6698 71.4434 19.6698Z" fill="#52525B"/>
<path d="M100.143 32.0906C100.143 29.8323 100.143 27.668 100.143 25.4097C100.143 23.9042 99.484 23.3396 97.9785 23.3396C93.3677 23.3396 88.757 23.3396 84.1463 23.3396C82.6407 23.3396 81.9821 23.9983 81.9821 25.4097C81.9821 27.668 81.9821 29.8323 81.9821 32.0906C81.9821 33.5961 82.6407 34.1607 84.1463 34.1607C86.4046 34.1607 88.6629 34.1607 90.9212 34.1607C93.2736 34.1607 95.6261 34.1607 97.9785 34.1607C99.484 34.2548 100.143 33.5961 100.143 32.0906ZM93.8382 30.585C92.8972 30.585 92.0504 30.585 91.1094 30.585C89.5098 30.585 87.9101 30.585 86.3105 30.585C85.7459 30.585 85.6518 30.3968 85.6518 29.9264C85.5577 27.0094 85.5577 27.0094 88.4747 27.0094C90.9212 27.0094 93.2736 27.0094 95.7201 27.0094C96.3788 27.0094 96.567 27.1976 96.567 27.8562C96.567 30.585 96.567 30.585 93.8382 30.585Z" fill="#52525B"/>
<path d="M14.7971 35.2898C14.703 36.6071 15.5498 37.454 16.5849 37.3599C17.62 37.3599 18.3727 36.513 18.3727 35.2898C18.3727 33.7842 18.3727 33.7842 19.9724 33.6901C21.1956 33.596 21.9484 32.9373 21.9484 31.8082C21.9484 30.679 21.1956 30.0204 19.8783 29.9263C18.3727 29.8322 18.3727 29.8322 18.3727 28.4207C18.3727 27.1034 17.62 26.3506 16.4908 26.3506C15.3616 26.3506 14.6089 27.1975 14.703 28.5148C14.7971 29.8322 14.4207 30.1144 13.1974 30.0203C11.8801 29.9263 11.0332 30.679 11.0332 31.8082C11.0332 32.9373 11.8801 33.7842 13.1974 33.6901C14.6089 33.596 14.8912 34.0665 14.7971 35.2898Z" fill="#52525B"/>
<path d="M38.6978 45.1699C39.8269 44.9817 40.3915 44.2289 40.3915 43.288C40.3915 42.2529 39.5446 41.5942 38.4155 41.5942C35.3103 41.5942 32.8638 44.2289 32.8638 47.8046C32.8638 48.7456 33.052 49.8747 33.2402 51.0039C33.5224 52.1331 34.4634 52.7917 35.4985 52.5094C36.4394 52.3212 37.004 51.2862 36.8158 50.2511C36.7217 49.4983 36.5335 48.7456 36.4394 47.9928C36.4394 46.205 37.0981 45.3581 38.6978 45.1699Z" fill="#52525B"/>
<path d="M94.6851 39.6183C94.6851 38.5832 93.9323 37.8304 92.709 37.8304C89.7921 37.8304 86.781 37.8304 83.864 37.8304C82.7348 37.8304 81.982 38.4891 81.8879 39.6183C81.8879 40.7474 82.6407 41.5002 83.864 41.5002C85.2754 41.5002 86.781 41.5002 88.1924 41.5002C89.698 41.5002 91.2035 41.5002 92.709 41.5002C94.0264 41.5002 94.7792 40.7474 94.6851 39.6183Z" fill="#52525B"/>
<path d="M14.7971 79.7031C14.7971 80.8323 15.5499 81.4909 16.7731 81.4909C18.2787 81.4909 19.6901 81.4909 21.1956 81.4909C22.6071 81.4909 24.1126 81.4909 25.5241 81.4909C26.7473 81.4909 27.5001 80.7382 27.5001 79.7031C27.5001 78.5739 26.7473 77.9153 25.5241 77.9153C22.6071 77.9153 19.6901 77.9153 16.7731 77.9153C15.4558 77.8212 14.703 78.5739 14.7971 79.7031Z" fill="#52525B"/>
<path d="M91.0153 45.1699C88.6629 45.1699 86.2164 45.1699 83.864 45.1699C82.7348 45.1699 81.9821 45.9227 81.9821 46.9578C81.9821 47.9928 82.7348 48.7456 83.864 48.7456C85.0872 48.7456 86.3105 48.7456 87.5337 48.7456C88.6629 48.7456 89.8862 48.7456 91.0153 48.7456C92.1445 48.7456 92.8972 47.9928 92.8972 46.9578C92.8972 45.9227 92.1445 45.1699 91.0153 45.1699Z" fill="#52525B"/>
<path d="M23.7363 70.576C22.6071 70.576 21.3839 70.576 20.2547 70.576C19.1256 70.576 17.9023 70.576 16.7732 70.576C15.644 70.576 14.8912 71.3288 14.8912 72.3639C14.8912 73.493 15.644 74.2458 16.8673 74.2458C19.2197 74.2458 21.5721 74.2458 23.9245 74.2458C25.0537 74.2458 25.8064 73.493 25.8064 72.458C25.7123 71.3288 24.9596 70.576 23.7363 70.576Z" fill="#52525B"/>
<path d="M12.9151 50.5335C12.821 49.4984 12.0683 48.7456 11.0332 48.8397C10.0922 48.8397 9.33946 49.4984 9.24536 50.5335C9.24536 51.8508 9.24536 53.0741 9.24536 54.3914C9.24536 55.4265 10.0922 56.1793 11.1273 56.0852C12.1624 56.0852 12.821 55.3324 12.9151 54.2973C12.9151 53.7328 12.9151 53.0741 12.9151 52.5095C12.9151 51.7567 13.0092 51.1921 12.9151 50.5335Z" fill="#52525B"/>
<path d="M23.0777 26.4447C24.0187 26.4447 24.9597 25.5037 24.9597 24.5627C24.9597 23.5277 24.0187 22.7749 22.9837 22.7749C21.9486 22.869 21.2899 23.6218 21.2899 24.6568C21.2899 25.6919 22.1368 26.4447 23.0777 26.4447Z" fill="#52525B"/>
<path d="M27.5001 33.7841C28.5352 33.7841 29.2879 32.9373 29.2879 31.8081C29.2879 30.773 28.4411 30.0203 27.406 30.0203C26.3709 30.0203 25.6182 30.773 25.6182 31.8081C25.6182 32.8432 26.465 33.7841 27.5001 33.7841Z" fill="#52525B"/>
<path d="M38.4153 27.0094C38.4153 28.0444 39.2621 28.7972 40.2972 28.7972C41.3323 28.7972 42.085 28.0444 42.085 27.0094C42.085 25.9743 41.3323 25.1274 40.2031 25.1274C39.0739 25.1274 38.3212 25.9743 38.4153 27.0094Z" fill="#52525B"/>
<path d="M45.6608 27.0093C45.6608 28.0443 46.5076 28.8912 47.5427 28.7971C48.5778 28.7971 49.3305 27.9502 49.3305 27.0093C49.3305 25.9742 48.5778 25.2214 47.5427 25.2214C46.4135 25.1273 45.6608 25.8801 45.6608 27.0093Z" fill="#52525B"/>
<path d="M52.9062 26.9153C52.9062 27.9503 53.659 28.7031 54.6941 28.7031C55.7292 28.7031 56.576 27.9503 56.576 26.9153C56.576 25.8802 55.8232 25.1274 54.7882 25.1274C53.7531 25.1274 52.9062 25.8802 52.9062 26.9153Z" fill="#52525B"/>
</svg>
