<svg width="112" height="112" viewBox="0 0 112 112" fill="none" xmlns="http://www.w3.org/2000/svg">
<path d="M57.7432 34.4506C58.405 36.1052 59.8941 36.9324 61.7141 37.0152C62.6241 37.0152 63.6168 37.0152 64.5268 37.0152C65.0231 37.0152 65.2713 37.1806 65.354 37.677C66.3468 43.0542 67.3395 48.4314 68.3322 53.8087C68.8285 56.6214 70.6485 58.2759 73.2958 58.3586C75.8603 58.3586 77.763 56.6213 78.3421 53.8914C79.3348 48.5142 80.3275 43.1369 81.3203 37.7597C81.403 37.2633 81.5684 37.0979 82.0648 37.0979C82.8921 37.0979 83.7193 37.0979 84.5466 37.0979C86.7802 37.0979 88.1865 36.1879 89.0138 34.1197C89.1793 33.6234 89.4275 33.2097 89.5929 32.7134C91.4129 28.2462 93.3156 23.7789 93.7292 18.8981C93.8947 16.9953 93.8947 15.0099 93.2329 13.1899C92.902 12.3627 92.2402 11.949 91.4129 12.1972C90.5856 12.4454 90.0893 13.1899 90.3374 14.0172C90.9993 16.2508 90.7511 18.4844 90.3374 20.718C89.5102 24.8544 87.8557 28.6598 86.3666 32.5479C85.8702 33.8716 85.622 34.037 84.133 34.037C77.5148 34.037 70.814 34.037 64.1959 34.037C60.225 34.037 60.9695 34.3679 59.5632 30.9761C57.9087 26.7571 56.1714 22.4553 55.7578 17.8226C55.3441 13.8517 57.6605 9.96359 61.3832 8.55724C64.0304 7.56452 66.5949 7.8127 69.0767 9.21905C71.724 10.6254 74.3712 10.7909 77.1012 9.38451C80.1621 7.72998 83.223 7.39907 86.3666 9.13633C87.1111 9.54996 87.8556 9.21905 88.2693 8.47451C88.6829 7.64725 88.4347 6.90271 87.6075 6.40635C86.2839 5.66181 84.8775 5.33091 83.4712 5C82.313 5 81.2375 5 80.0794 5C78.2594 5.49636 76.5221 6.32362 74.7849 7.06816C73.7921 7.4818 72.7167 7.4818 71.8067 7.06816C69.9867 6.32362 68.2495 5.41363 66.3468 5C65.1886 5 63.9477 5 62.7895 5C62.7068 5.16545 62.5413 5.16545 62.3759 5.24818C60.5559 5.57909 58.9841 6.32362 57.495 7.39907C53.1105 10.8736 52.2005 15.4235 53.1105 20.6353C53.855 25.3507 55.8405 29.9007 57.7432 34.4506ZM75.1158 53.6432C74.8676 54.8841 73.8749 55.3805 72.7167 55.1323C71.8067 54.8841 70.9794 53.5605 71.2276 52.5678C71.2276 52.4023 71.3931 52.2368 71.4758 52.1541C72.9649 50.5823 74.5367 49.0105 76.1085 47.5214C76.1912 47.5214 76.2739 47.6042 76.3567 47.6042C75.943 49.6723 75.6121 51.6578 75.1158 53.6432ZM78.1767 37.0152C78.5076 37.1806 78.2594 37.5115 78.1767 37.8424C78.0112 38.587 77.8458 39.2488 77.763 39.9933C77.6803 41.5651 76.9357 42.6406 75.8603 43.6333C74.123 45.2878 72.3858 47.0251 70.5658 48.9278C70.3176 47.5214 70.0695 46.2805 69.8213 45.1224C69.7385 44.7915 69.9867 44.626 70.1522 44.4606C72.4685 42.1442 74.8676 39.7451 77.1839 37.4288C77.5148 37.0152 77.8458 36.8497 78.1767 37.0152ZM68.9113 37.0152C70.2349 37.0152 71.6412 37.0152 72.8821 37.0152C71.6412 38.2561 70.3176 39.497 68.994 40.8206C68.8286 39.8279 68.5804 38.6697 68.3322 37.5115C68.2495 36.9324 68.5804 37.0152 68.9113 37.0152Z" fill="#52525B"/>
<path d="M100.926 85.6583C100.844 80.8602 100.926 75.9793 100.099 71.2639C99.2719 66.4657 95.7147 65.1421 91.9093 68.1203C90.9165 68.9475 90.0893 69.8575 89.3447 70.8503C88.7657 71.6775 87.9384 72.0084 86.9457 72.0912C85.9529 72.0912 85.043 72.0912 84.0502 72.0912C83.4711 72.0912 83.3884 71.9257 83.3884 71.4293C83.3884 70.4366 83.3884 69.4439 83.3884 68.4512C83.3884 67.293 82.8093 66.7139 81.6512 66.7139C76.0258 66.7139 70.4831 66.7139 64.8577 66.7139C63.7823 66.7139 63.2859 67.2103 63.2032 68.2857C63.1204 69.1957 63.2032 70.1057 63.2032 71.0157C63.2032 71.3466 63.5341 72.0912 62.955 72.0912C62.1277 72.0912 61.135 72.5875 60.5559 71.7602C59.2323 69.6921 57.3296 68.7821 54.8478 68.7821C55.8405 65.8867 56.6678 63.074 56.916 60.0958C57.3296 55.4631 55.7578 51.575 51.9524 48.845C48.1469 46.115 43.9279 45.8668 39.7916 47.935C37.3925 49.1759 35.4071 49.1759 33.008 47.935C25.2317 43.8814 15.8836 49.6723 15.8009 58.4413C15.8009 60.8403 16.2145 63.1567 16.8763 65.3903C17.0418 66.0521 17.0418 66.383 16.2972 66.383C14.9736 66.4657 14.0636 67.2103 13.2364 68.203C12.1609 69.4439 11.9127 70.933 11.6645 72.4221C10.92 77.7166 11.0027 83.011 11.0027 88.3883C11.0027 89.0501 11.0855 89.6292 11.1682 90.291C11.9127 94.0964 14.3945 96.6609 17.4554 98.8118C18.3654 99.4736 19.1927 99.3082 19.689 98.5636C20.2681 97.7364 20.1026 96.9918 19.1099 96.2473C18.0345 95.5028 17.0418 94.6755 16.2145 93.6828C14.9736 92.2764 14.0636 90.7046 14.0636 88.8846C13.8982 84.0038 14.0636 79.2056 14.4773 74.3248C14.56 73.2493 14.6427 72.1739 15.0563 71.0984C15.3872 70.1884 16.2972 69.4439 17.2072 69.3612C18.1999 69.3612 18.5308 70.1057 18.779 70.8503C19.1927 71.9257 19.6063 72.9184 20.0199 73.9939C21.6745 78.2956 23.5772 82.432 24.4044 86.9819C24.5699 87.8092 24.7353 88.6364 25.0662 89.381C26.3071 92.0282 29.0371 92.6073 31.188 90.5392C32.1807 89.5464 32.8425 88.3883 33.2562 87.0646C33.918 84.831 34.5798 82.5974 35.2416 80.3638C35.407 79.702 35.6552 79.0402 36.4825 79.0402C37.3098 79.0402 37.4752 79.702 37.7234 80.3638C38.3852 82.5974 39.047 84.9138 39.7088 87.1474C40.1225 88.6365 40.867 89.8773 42.1079 90.8701C44.0933 92.3591 46.4097 91.9455 47.6506 89.7946C48.0642 89.0501 48.3124 88.3055 48.4778 87.4783C49.3051 82.5974 51.3733 78.1302 53.1933 73.5802C53.6069 72.5048 54.5996 71.9257 55.8405 71.9257C56.9987 71.9257 57.7432 72.5048 58.1568 73.4975C58.7359 74.7384 59.6459 75.2348 60.9695 75.152C62.8723 75.0693 64.8577 75.152 66.7604 75.152C67.3395 75.152 67.5877 75.3175 67.5877 75.8966C67.6704 76.8066 67.8358 77.7165 68.0013 78.6265C68.6631 83.0938 69.2422 87.4783 69.904 91.9455C70.2349 94.0137 71.8067 95.2546 73.7922 95.2546C75.7776 95.2546 77.2667 93.9309 77.5976 91.8628C78.3421 86.5683 79.0039 81.2738 79.6657 75.9793C79.7485 75.3175 79.9139 75.152 80.5757 75.152C82.7266 75.2348 84.8775 75.152 87.0284 75.152C89.3447 75.2348 91.082 74.242 92.3229 72.4221C92.9847 71.5121 93.5638 70.6021 94.4738 69.9403C95.4665 69.1957 96.211 69.3612 96.8728 70.3539C97.3692 71.1812 97.4519 72.0912 97.5347 73.0011C98.1138 77.9647 98.1137 82.9283 98.1965 87.8092C98.1965 89.9601 97.4519 91.7801 96.0456 93.4346C95.1356 94.51 93.9774 95.42 92.8193 96.2473C89.0966 98.7291 84.9602 100.135 80.6585 101.211C73.7094 102.948 66.6777 103.693 59.5632 103.858C50.8769 104.106 42.2734 103.444 33.8353 101.625C31.4362 101.128 29.1199 100.466 26.8862 99.6391C25.5626 99.1427 24.4872 100.053 24.7353 101.376C24.9008 102.121 25.4799 102.369 26.059 102.535C33.5044 105.182 41.1979 106.34 49.0569 106.754C59.6459 107.25 70.1522 106.754 80.493 104.272C85.5393 103.114 90.5029 101.459 94.8874 98.4809C97.7001 96.5782 100.016 94.2619 100.926 90.8701C101.092 89.2983 100.926 87.4783 100.926 85.6583ZM53.8551 59.2685C53.6069 63.8185 51.8696 67.9548 50.2978 72.1739C48.6433 76.4757 46.7406 80.612 45.7479 85.0792C45.4997 86.0719 45.3343 87.0646 45.0861 87.9746C45.0033 88.3883 44.8379 88.8019 44.3415 88.8019C43.8452 88.8846 43.597 88.5537 43.4315 88.1401C42.687 87.0646 42.3561 85.8237 42.0252 84.5829C41.4461 82.7629 41.0325 80.8602 40.3706 79.0402C39.2952 75.8966 35.738 74.9866 33.5044 77.2202C32.8425 77.882 32.5116 78.7093 32.2635 79.5365C31.6844 81.6047 31.1053 83.7556 30.4435 85.8237C30.1953 86.7337 29.8644 87.561 29.2853 88.3055C28.7062 88.9674 28.2098 88.8846 27.8789 88.0574C27.4653 87.1474 27.3826 86.0719 27.2171 85.0792C26.1417 80.4465 24.1562 76.1448 22.5017 71.6775C21.1781 68.2857 19.8545 64.8939 19.2754 61.254C19.1099 60.344 19.0272 59.434 19.0272 58.9376C18.9445 51.8232 25.9762 47.4386 31.9325 50.5823C35.0761 52.2368 38.0543 52.3195 41.1979 50.5823C44.1761 48.9277 47.3197 49.0932 50.1324 51.0786C52.7796 53.0641 54.0205 55.794 53.8551 59.2685ZM76.1085 77.3856C75.5294 81.8529 74.9503 86.3201 74.3712 90.7873C74.3712 90.9528 74.2885 91.201 74.2885 91.3664C74.2058 91.8628 74.0403 92.1937 73.4613 92.1937C72.9649 92.1937 72.7167 91.8628 72.634 91.3664C72.3858 89.7946 72.1376 88.1401 71.9722 86.5683C71.4758 83.0111 70.9794 79.3711 70.4004 75.8138C70.3176 75.152 70.4831 74.9866 71.0622 75.0693C71.8067 75.152 72.5513 75.0693 73.3785 75.0693C73.6267 75.0693 73.8749 75.0693 74.2058 75.0693C76.4394 75.152 76.3567 75.152 76.1085 77.3856ZM78.7557 72.0912C74.9503 72.0912 71.1449 72.0912 67.2568 72.0912C66.5122 72.0912 66.0986 71.9257 66.264 71.0984C66.3468 70.8503 66.264 70.6021 66.264 70.2712C66.1813 69.7748 66.4295 69.6094 66.9259 69.6094C69.0768 69.6094 71.2276 69.6094 73.3785 69.6094C75.364 69.6094 77.4321 69.6094 79.4176 69.6094C79.9967 69.6094 80.2448 69.6921 80.2448 70.4366C80.3276 72.0912 80.3275 72.0912 78.7557 72.0912Z" fill="#52525B"/>
<path d="M58.7361 16.9952C58.7361 18.0706 59.3152 18.6497 60.3079 18.6497C61.3006 18.6497 61.7142 18.0706 61.7969 17.1606C62.0451 15.1752 63.2033 14.017 65.0233 13.8516C66.1814 13.7689 66.7605 13.107 66.6778 12.1971C66.5951 11.2871 65.9333 10.7907 64.8578 10.8734C61.6315 10.8734 58.7361 13.7689 58.7361 16.9952Z" fill="#52525B"/>
<path d="M28.0443 52.6505C24.818 52.6505 21.8398 55.6287 21.7571 58.855C21.7571 59.8477 22.2534 60.5096 23.1634 60.5923C23.9907 60.675 24.6525 60.1787 24.818 59.3514C25.3143 56.7869 25.728 56.2905 28.3752 55.7114C29.2852 55.546 29.7816 54.8842 29.6988 54.0569C29.6161 53.1469 28.9543 52.5678 28.0443 52.6505Z" fill="#52525B"/>
</svg>
