<svg width="112" height="112" viewBox="0 0 112 112" fill="none" xmlns="http://www.w3.org/2000/svg">
<path d="M105.946 35.0687C101.202 32.2574 96.4574 29.446 91.6253 26.7225C90.5711 26.1075 89.5168 26.3711 88.9897 27.1618C88.4625 28.0403 88.8139 29.0946 89.8682 29.7974C90.8346 30.4124 91.8889 31.0274 92.8553 31.5545C93.5581 31.9059 93.7338 32.1695 93.2067 32.8723C92.416 34.1023 91.6253 35.4201 90.9225 36.738C90.4832 37.5287 90.1318 37.7922 89.2532 37.2651C87.8475 36.3866 87.0568 36.6501 86.1783 38.0558C80.6434 47.632 75.1085 57.1204 69.6615 66.6966C67.9044 69.7716 68.168 72.7587 70.2765 75.57C70.4522 75.7457 70.8036 75.9214 70.6279 76.3607C70.4522 76.7121 70.1886 76.8 69.7494 76.8C67.1137 76.8 64.478 76.8 61.9302 76.8C61.3152 76.8 61.2274 76.6243 61.2274 76.0971C61.2274 74.955 61.3152 73.725 61.2274 72.5829C61.1395 71.7922 61.491 71.353 62.0181 70.9137C67.2015 66.6088 69.3101 60.986 68.168 54.3969C65.9716 42.5364 52.2661 36.6501 42.1628 43.1514C41.5478 43.5028 41.1964 43.5028 40.5814 43.1514C36.6279 40.7793 32.323 39.9008 27.7545 40.8672C15.1034 43.6785 10.0078 58.2625 18.0026 68.4537C20.6382 70.2108 20.6382 72.8465 20.4625 75.57C20.4625 75.7457 20.4625 75.8336 20.4625 76.0093C20.5504 76.6243 20.3747 76.8879 19.6718 76.8879C18.7054 76.8 17.739 76.8879 16.7726 76.8879C13.522 76.8879 10.1835 76.8879 6.93282 76.8879C5.61499 76.8879 5 77.5028 5 78.645C5 79.7871 5.70284 80.3142 6.93282 80.3142C11.062 80.3142 15.2791 80.3142 19.4083 80.3142C20.199 80.3142 20.3747 80.5778 20.4625 81.2806C20.5504 88.924 23.8889 95.3375 28.0181 101.487C28.8088 102.629 30.5659 103.244 31.6202 102.805C33.553 101.927 34.6951 100.609 34.6072 98.3245C34.5194 95.601 34.5194 92.8775 34.9587 90.154C35.5736 85.9369 37.155 82.0713 39.615 78.645C40.4057 77.5907 40.9328 77.5028 41.6357 78.5571C44.9742 83.2134 46.907 88.3969 47.0827 94.1953C47.0827 95.6889 47.0827 97.2703 47.0827 98.7638C47.0827 100.697 48.2248 102.014 49.8941 102.542C51.6512 102.981 53.0569 102.366 54.1111 100.784C54.7261 99.7302 55.3411 98.676 56.0439 97.6217C59.2946 92.6139 61.1395 87.1669 61.2274 81.1049C61.2274 80.6656 61.3152 80.4899 61.8424 80.4899C63.9509 80.4899 66.0594 80.4899 68.3437 80.4899C66.4109 83.9163 64.478 87.0791 62.6331 90.3297C61.9302 91.5597 62.1059 92.7018 63.0723 93.2289C64.0388 93.7561 65.0052 93.3168 65.708 92.1747C67.8165 88.5726 69.8372 85.0584 71.8579 81.4563C72.2972 80.6656 72.7364 80.4899 73.615 80.4899C81.522 80.4899 89.4289 80.4899 97.3359 80.4899C98.7416 80.4899 99.5323 79.7871 99.5323 78.7328C99.5323 77.5907 98.8295 77.0636 97.3359 77.0636C93.7338 77.0636 90.2196 77.0636 86.6176 77.0636C84.5969 77.0636 82.5762 77.0636 80.3798 77.0636C81.6098 76.0093 82.4005 75.0429 83.1034 73.8129C88.3747 64.5881 93.7338 55.3633 99.093 46.1385C100.147 44.2935 100.059 43.5907 98.2145 42.4486C97.7752 42.185 97.6873 42.0093 97.9509 41.4822C98.8295 39.9886 99.708 38.4951 100.587 37.0015C100.85 36.5623 101.026 36.4744 101.465 36.738C102.256 37.2651 103.134 37.7922 104.013 38.2315C105.067 38.8465 106.209 38.6708 106.736 37.7922C107.264 36.738 107 35.6837 105.946 35.0687ZM59.031 69.6837C58.2403 70.2108 58.0646 70.9137 58.0646 71.7044C58.0646 75.1307 58.0646 78.5571 57.9767 81.9835C57.8889 86.3762 56.4832 90.5054 54.2868 94.2832C53.3204 96.0403 52.2662 97.7096 51.124 99.5545C50.6848 98.7638 50.8605 98.1488 50.8605 97.5339C51.0362 92.614 50.4212 87.8698 48.4884 83.3891C47.522 81.1049 46.292 78.9085 44.7985 76.8879C42.6021 73.9008 39.2636 73.9008 37.155 76.8879C34.6951 80.4021 33.0258 84.2677 32.1473 88.3969C31.4444 91.6475 31.5323 94.986 31.5323 98.3245C31.5323 98.676 31.5323 99.0274 31.5323 99.291C31.1809 99.4667 31.093 99.291 30.9173 99.1152C28.8966 95.6889 26.6124 92.3504 25.3824 88.4847C24.2403 84.7948 24.2403 81.017 24.2403 77.1514C24.2403 75.0429 24.2403 72.9343 24.2403 70.8258C24.2403 69.7716 23.8889 69.0687 23.0982 68.3659C18.969 64.9395 17.2997 60.5468 18.2661 55.2754C19.2326 49.9163 22.4832 46.4021 27.6667 44.7328C36.7158 41.7457 43.5685 49.0377 44.8863 55.0997C45.062 56.0661 45.1499 56.9447 45.2377 57.9111C45.3256 59.2289 45.9406 59.8439 46.9948 59.8439C48.137 59.8439 48.7519 59.1411 48.6641 57.7354C48.5762 53.7819 47.3463 50.2677 44.7985 47.1927C44.2713 46.5778 44.447 46.4021 44.9742 46.1385C53.584 41.3064 64.478 47.1928 65.1809 57.0326C65.6202 62.4796 63.5995 66.6966 59.031 69.6837ZM92.9432 45.6992C92.416 45.4356 91.8889 45.0842 91.3618 44.8207C90.3953 44.2935 89.2532 44.645 88.8139 45.3478C88.3747 46.1385 88.6382 47.2806 89.5168 47.8077C90.3953 48.4227 91.3618 48.9499 92.3282 49.477C92.6796 49.6527 92.8553 49.9163 92.5039 50.2677C92.0646 50.9705 91.6253 51.7612 91.186 52.5519C90.9225 52.9912 90.7468 52.9033 90.3953 52.7276C89.5168 52.2005 88.5504 51.6734 87.6718 51.1462C86.6176 50.5312 85.5633 50.7948 85.0362 51.5855C84.509 52.4641 84.8605 53.5183 85.9147 54.2212C86.7933 54.7483 87.6718 55.3633 88.6382 55.8026C89.0775 56.0661 89.1654 56.2418 88.9018 56.6811C88.3747 57.5597 88.0233 58.8775 87.3204 59.1411C86.5297 59.4046 85.5633 58.3504 84.6848 57.8232C84.2455 57.6475 83.8941 57.2961 83.4548 57.2083C82.5762 57.1204 81.7855 57.2961 81.4341 58.1747C81.0827 59.0532 81.3463 59.8439 82.1369 60.371C83.0155 60.986 83.9819 61.5132 84.9483 62.0403C85.2997 62.216 85.5633 62.3917 85.2119 62.9189C84.6848 63.7974 84.3333 65.1152 83.5426 65.3788C82.7519 65.6424 81.7855 64.5003 80.907 64.061C80.5555 63.8853 80.292 63.7095 79.9406 63.5338C78.9742 63.1824 78.0078 63.446 77.6563 64.2367C77.3049 65.0274 77.5685 66.1695 78.3592 66.6966C79.2377 67.3116 80.2041 67.8387 81.1705 68.3659C81.6098 68.6294 81.6977 68.893 81.4341 69.3323C80.7313 70.4744 80.1163 71.6165 79.4134 72.6708C78.3592 74.4279 76.0749 75.2186 74.5814 74.4279C72.385 73.2858 71.5065 71.1772 72.385 69.0687C72.5607 68.7173 72.7364 68.278 72.9121 67.9266C78.0078 59.1411 83.1034 50.3555 88.1111 41.57C88.5504 40.8672 88.8139 40.7793 89.5168 41.2186C91.4496 42.4486 93.4703 43.5907 95.491 44.7328C94.7881 46.7535 94.7881 46.7535 92.9432 45.6992ZM97.6873 35.1566C96.8088 36.5623 95.9302 37.968 95.2274 39.4615C94.7881 40.2522 94.4367 39.9008 93.9974 39.6372C93.2946 39.3736 93.8217 38.9344 93.9974 38.6708C94.876 37.1772 95.6667 35.7716 96.5452 34.278C96.6331 34.1023 96.7209 33.663 97.1602 33.9266C97.5116 34.1023 97.7752 34.278 98.1266 34.5416C97.8631 34.8052 97.7752 34.9809 97.6873 35.1566Z" fill="#52525B"/>
<path d="M55.5169 28.5672C55.9562 30.2365 56.3954 31.9057 56.9226 33.575C57.274 34.805 58.3282 35.5078 59.2068 35.2443C60.0854 34.9807 60.5246 33.9264 60.1732 32.6964V32.6086C59.1189 28.9187 58.1525 25.1409 57.0983 21.451C56.2197 18.1125 55.2533 14.774 54.3748 11.5233C54.1112 10.4691 53.2326 9.85408 52.4419 10.0298C51.4755 10.2055 51.0363 10.8205 51.0363 11.8747C51.0363 12.0505 51.1241 12.4019 51.212 12.6654C52.6177 17.8489 54.1112 23.2081 55.5169 28.5672Z" fill="#52525B"/>
<path d="M66.938 35.244C67.553 35.1562 68.0801 34.8926 68.4316 34.3655C72.4729 28.567 76.6021 22.7686 80.6434 16.9701C81.3463 15.9159 81.2584 15.1252 80.292 14.4223C79.3256 13.8074 78.6228 13.9831 77.9199 14.9495C76.7778 16.5309 75.7235 18.0244 74.6693 19.6058C71.6822 23.8229 68.6951 28.1278 65.708 32.3448C65.2688 32.9598 65.0931 33.5748 65.3566 34.1898C65.6202 34.8926 66.323 35.1562 66.938 35.244Z" fill="#52525B"/>
<path d="M34.1681 28.216C34.6952 28.6552 35.2223 29.0067 35.6616 29.3581C39.6151 32.2573 43.5686 35.1565 47.5221 38.0558C48.5763 38.8465 49.5427 38.7586 50.1577 37.9679C50.7727 37.1772 50.5092 36.0351 49.5427 35.3322C45.15 32.0816 40.8451 28.9188 36.4523 25.6682C36.1009 25.4046 35.8373 25.2289 35.398 25.2289C34.6073 25.2289 33.9045 25.4046 33.6409 26.1953C33.3774 26.986 33.4652 27.6888 34.1681 28.216Z" fill="#52525B"/>
</svg>
