<svg width="112" height="112" viewBox="0 0 112 112" fill="none" xmlns="http://www.w3.org/2000/svg">
<path d="M98.0728 31.4672C82.1141 22.2279 67.742 13.9219 54.1164 6.08258C50.4767 4.02942 46.3704 4.96268 44.2239 8.32241C42.0774 11.6821 43.0107 15.6951 46.4637 18.1216C46.837 18.4016 46.9304 18.4949 46.9304 18.8682C46.9304 22.9745 46.837 27.8275 46.9304 32.5871C46.9304 32.7737 46.9304 32.8671 46.9304 32.8671C46.837 32.8671 46.7437 32.8671 46.5571 32.8671C44.5972 32.8671 42.6374 32.8671 41.0508 32.8671H39.2776C36.3845 32.8671 34.3314 33.987 33.0248 36.2268C32.8382 36.5068 32.7448 36.6001 32.1849 36.6001C31.2516 36.6001 30.3184 36.6001 29.3851 36.6001H29.1985C28.1719 36.6001 27.2386 36.6001 26.212 36.6001C25.4654 36.6001 24.9988 36.7867 24.6255 37.16C24.2522 37.5334 24.0656 38.0933 24.0656 38.7466C24.0656 40.5198 24.0656 42.293 24.0656 44.0661C24.0656 44.8128 24.2522 45.2794 24.6255 45.6527C25.1855 46.1193 25.8387 46.2126 26.3987 46.2126C27.332 46.2126 28.1719 46.2126 29.1051 46.2126H29.3851C30.3184 46.2126 31.2516 46.2126 32.1849 46.2126C32.6515 46.2126 32.8382 46.306 33.1181 46.6793C34.4247 48.8258 36.3845 49.9457 38.9043 49.9457C48.9835 49.9457 57.3828 49.9457 65.2222 49.9457C68.5819 49.9457 71.2884 47.7059 71.9416 44.3461C72.1283 43.2262 72.1283 42.1996 72.1283 41.1731C72.1283 40.8931 72.1283 40.6131 72.1283 40.3331C72.1283 35.8535 69.3285 33.0537 64.7556 32.9604C62.3291 32.9604 59.9026 32.9604 57.4762 32.9604H57.1962C57.1962 30.6272 57.1962 28.2008 57.1962 25.961V24.3744L63.5423 28.0141C69.6085 31.5605 76.5146 35.4802 83.2341 39.3065C83.7007 39.5865 83.8873 39.8665 83.8873 40.5198C83.8873 43.4129 83.8873 46.306 83.8873 49.1991V51.4389C83.8873 52.8388 84.4473 53.5854 85.4739 53.5854C85.9405 53.5854 86.3138 53.3987 86.5938 53.1188C87.0604 52.6521 87.0604 51.9988 87.0604 51.4389C87.0604 50.9723 87.0604 50.5989 87.0604 50.1323V41.5464L87.3404 41.733C88.367 42.293 89.3002 42.9462 90.3268 43.4129C90.7934 43.5995 90.8868 43.7862 90.7934 44.3461C90.7934 45.9327 90.7934 47.5192 90.7934 49.0124V49.1057C90.7934 49.9457 90.7934 50.6923 90.7934 51.5322C90.7934 52.0922 90.7934 53.4921 92.1933 53.5854H92.2867C92.7533 53.5854 93.0333 53.4921 93.3132 53.2121C93.7799 52.7454 93.7799 51.9988 93.7799 51.5322V49.5724C93.7799 48.1725 93.7799 46.6793 93.7799 45.2794C93.7799 45.0927 93.7799 44.9994 93.7799 44.9994C93.8732 44.9994 93.9665 44.9994 94.0598 44.9994C97.6995 45.1861 100.686 43.3196 101.619 40.0532C102.739 36.6934 101.339 33.3337 98.0728 31.4672ZM53.7431 32.6804C53.7431 32.7737 53.7431 32.8671 53.7431 32.8671C53.6498 32.8671 53.4632 32.8671 53.2765 32.8671H53.1832C51.5966 32.8671 50.4767 32.9604 50.1968 32.6804C49.9168 32.4004 49.9168 31.2805 49.9168 29.694V20.2681L50.2901 20.4548C51.41 21.108 52.5299 21.7613 53.6498 22.3213C53.7431 22.4146 53.7431 22.4146 53.7431 22.6946V22.8812C53.7431 23.9078 53.7431 24.9344 53.7431 25.961V26.0543C53.7431 28.2008 53.7431 30.4406 53.7431 32.6804ZM68.6752 42.013C68.6752 42.293 68.6752 42.5729 68.6752 42.8529C68.6752 45.2794 67.3687 46.586 64.9422 46.586C63.729 46.586 62.5157 46.586 61.3025 46.586C60.0893 46.586 58.876 46.586 57.6628 46.586H57.1028C56.2629 46.586 55.5163 46.586 54.6764 46.586H50.57C46.837 46.586 43.104 46.586 39.371 46.586C36.2912 46.586 35.078 45.466 35.078 42.293V42.1063C35.078 41.1731 35.078 40.2398 35.1713 39.3065C35.358 37.3467 36.6645 36.1335 38.6244 36.1335C41.5175 36.1335 44.4106 36.1335 47.397 36.1335H51.8766C53.1832 36.1335 54.3964 36.1335 55.703 36.1335C56.4496 36.1335 57.2895 36.1335 58.1294 36.1335H59.2493C59.5293 36.1335 59.716 36.1335 59.996 36.1335C61.6758 36.1335 63.0757 36.1335 64.3823 36.0401C65.7821 35.9468 66.9954 36.4135 67.742 37.2534C68.4886 38 68.7686 39.1199 68.6752 40.4264C68.5819 40.9864 68.6752 41.5464 68.6752 42.013ZM50.3834 8.22908C50.4767 8.22908 50.4767 8.22908 50.57 8.22908C51.3167 8.22908 51.9699 8.60238 52.6232 8.88235L57.0095 11.4021C70.1685 19.0549 83.4207 26.6142 96.5796 34.2669C98.7261 35.4802 99.4727 37.72 98.3528 39.7732C97.7929 40.7064 97.0463 41.3597 96.113 41.6397C94.9931 41.9197 93.7799 41.733 92.5666 41.0797C84.8206 36.6001 77.1679 32.2138 69.4219 27.7341L56.6362 20.3614C53.9298 18.7749 51.2233 17.2817 48.6102 15.6951C46.837 14.6686 46.0904 12.8954 46.5571 10.9355C46.837 10.0023 47.4903 9.16233 48.5169 8.60237C49.0768 8.3224 49.6368 8.22908 50.3834 8.22908ZM29.7584 42.8529H29.6651C29.4784 42.8529 29.2918 42.8529 29.1985 42.8529C28.4519 42.8529 27.6119 42.8529 27.4253 42.7596C27.332 42.6663 27.2386 41.9197 27.2386 41.2664V40.9864C27.2386 40.3331 27.2386 40.0531 27.332 39.9598H28.8252C29.0118 39.9598 29.1985 39.9598 29.3851 39.9598H29.4784C29.5718 39.9598 29.6651 39.9598 29.7584 39.9598C30.6917 39.9598 31.6249 39.9598 31.8116 40.1465C31.9982 40.2398 31.9982 41.1731 31.9982 42.013V42.1996C31.9982 42.8529 31.9049 43.0396 31.9049 43.0396C31.9049 43.0396 31.8116 43.1329 31.2516 43.0396C30.785 42.8529 30.2251 42.8529 29.7584 42.8529Z" fill="#52525B"/>
<path d="M18.1861 64.1312C21.7325 64.0379 25.2788 64.0379 28.8252 64.1312H29.2918C30.8784 64.1312 32.4649 64.1312 34.0515 64.1312H39.5577C42.9174 64.1312 46.3704 64.1312 49.7302 64.1312C50.1968 64.1312 50.9434 64.1312 51.41 63.6646C51.69 63.3846 51.8767 63.0113 51.7833 62.5447C51.7833 60.9581 50.2901 60.9581 49.6368 60.9581C47.0237 60.9581 44.5039 60.9581 41.8908 60.9581H39.651C32.2783 60.9581 24.9989 60.9581 17.8128 60.9581C14.0798 60.9581 11 64.2245 11 67.9576C11 71.6906 13.8931 74.677 17.6261 74.8637C18.5594 74.957 19.586 74.957 20.6126 74.8637H21.5458C22.5724 74.8637 23.599 74.8637 23.7856 75.0503C23.9723 75.237 23.9723 76.1702 23.9723 77.2901C23.9723 77.5701 23.9723 77.6634 23.9723 77.7568C23.8789 77.7568 23.7856 77.7568 23.599 77.7568C22.2924 77.7568 21.3591 78.0367 20.7059 78.7833C20.0526 79.4366 19.6793 80.4632 19.6793 81.7698C19.6793 89.0492 19.6793 96.4219 19.6793 103.701C19.6793 106.221 20.9858 107.621 23.5056 107.714C24.0656 107.714 24.6256 107.714 25.1855 107.714C25.6521 107.714 26.1188 107.714 26.4921 107.714C26.9587 107.714 27.332 107.714 27.7986 107.714H32.0916C35.4513 107.714 38.7177 107.714 42.0775 107.714C44.6906 107.714 46.2771 106.314 46.2771 103.888C46.2771 96.6086 46.2771 89.0492 46.2771 81.4898C46.2771 80.3699 45.9038 79.3433 45.1572 78.69C44.5973 78.1301 43.7573 77.8501 42.9174 77.9434C42.1708 78.0367 42.0775 77.8501 41.9841 77.8501C41.7975 77.6634 41.8908 77.0101 41.8908 76.7302C41.9841 76.1702 41.9841 75.7036 41.8908 75.1436C41.8908 75.0503 41.8908 75.0503 41.8908 75.0503C41.8908 75.0503 41.9841 75.0503 42.0775 75.0503C44.6906 75.1436 46.8371 75.1436 48.7969 75.0503C48.8902 75.0503 48.9836 75.0503 49.1702 75.0503H49.2635C49.8235 75.1436 50.5701 75.237 51.1301 74.677C51.5034 74.397 51.5967 73.9304 51.5967 73.3705C51.5967 72.8105 51.41 72.4372 51.1301 72.1572C50.5701 71.6906 49.8235 71.7839 49.2635 71.8772C49.1702 71.8772 48.9836 71.8772 48.8902 71.8772C38.5311 71.8772 27.892 71.8772 18.746 71.8772C16.8795 71.8772 15.573 71.224 14.8264 69.9174C14.1731 68.7042 14.0797 67.3043 14.733 66.1844C15.573 64.8778 16.7862 64.1312 18.1861 64.1312ZM43.384 89.7024V90.0758C43.384 91.009 43.384 91.849 43.384 92.7822V96.6086C43.384 98.7551 43.384 100.902 43.384 103.048C43.384 104.448 43.384 104.448 41.9841 104.448H36.8512C32.5582 104.448 28.2653 104.448 24.1589 104.448C23.599 104.448 23.319 104.355 23.2257 104.261C23.039 104.168 23.039 103.795 23.039 103.328C23.039 95.2087 23.039 88.4892 23.039 82.1431C23.039 81.4898 23.1323 81.3032 23.2257 81.2098C23.4123 81.0232 23.6923 81.0232 24.2522 81.0232H24.3456C30.3184 81.1165 36.3846 81.1165 42.2641 81.0232C42.8241 81.0232 43.1974 81.1165 43.2907 81.2098C43.384 81.3032 43.4774 81.5831 43.4774 82.2364C43.2907 84.6629 43.384 87.276 43.384 89.7024ZM27.4253 75.0503C27.612 74.8637 28.5452 74.8637 29.5718 74.8637C30.4117 74.8637 31.2517 74.8637 32.0916 74.8637H32.1849C34.2381 74.8637 36.3846 74.8637 38.4378 74.8637H38.5311C38.9044 74.8637 38.9977 74.957 38.9977 74.957C38.9977 74.957 39.091 75.0503 39.091 75.6103V75.7036C39.091 76.4502 39.091 77.3835 38.9044 77.4768C38.7177 77.5701 37.7845 77.5701 36.9446 77.5701H33.0249C32.6516 77.5701 32.2783 77.5701 31.905 77.5701H31.4383C30.0384 77.5701 28.8252 77.5701 27.612 77.5701C27.5187 77.5701 27.4253 77.5701 27.332 77.5701C27.332 77.4768 27.332 77.3835 27.332 77.1968C27.332 76.2635 27.2387 75.237 27.4253 75.0503Z" fill="#52525B"/>
<path d="M93.6866 53.9586C82.0209 53.9586 70.3552 53.9586 58.6895 53.9586C54.6765 53.9586 52.4366 56.1984 52.4366 60.2114C52.4366 65.0644 52.4366 69.824 52.4366 74.6769V80.7431V86.6226C52.4366 91.4756 52.4366 96.3285 52.4366 101.181C52.4366 105.194 54.6765 107.434 58.7828 107.434C64.6623 107.434 70.5418 107.434 76.4214 107.434C82.1142 107.434 87.9004 107.434 93.5933 107.434C97.6063 107.434 99.9394 105.101 99.9394 101.088C99.9394 87.3692 99.9394 73.7437 99.9394 60.0248C99.9394 56.3851 97.513 53.9586 93.6866 53.9586ZM96.673 86.6226C96.673 91.4756 96.673 96.3285 96.673 101.181C96.673 103.701 95.9264 104.448 93.5 104.448C81.9276 104.448 70.2619 104.448 58.6895 104.448C56.543 104.448 55.6097 103.515 55.5164 101.461C55.5164 87.5559 55.5164 73.7437 55.5164 60.3048C55.5164 58.2516 56.4497 57.3183 58.5028 57.3183C64.1957 57.3183 70.0752 57.3183 76.0481 57.3183C81.8342 57.3183 87.6204 57.3183 93.5933 57.3183C95.7398 57.3183 96.5797 58.1583 96.5797 60.3981C96.5797 65.251 96.5797 70.104 96.5797 74.8636V80.8364L96.673 86.6226Z" fill="#52525B"/>
<path d="M33.2117 93.7155C31.1585 93.7155 29.4786 95.302 29.4786 97.3552C29.4786 98.3817 29.8519 99.4083 30.5985 100.155C31.2518 100.808 32.1851 101.275 33.2117 101.275H33.305C35.3581 101.275 36.9447 99.595 36.9447 97.5418C36.8514 95.3953 35.2648 93.7155 33.2117 93.7155Z" fill="#52525B"/>
<path d="M33.025 91.569C35.1715 91.569 36.758 90.0758 36.8513 88.0226C36.8513 86.9961 36.478 85.9695 35.8247 85.3162C35.1715 84.5696 34.1449 84.1963 33.1183 84.1963C31.0651 84.1963 29.4786 85.7828 29.3853 87.836C29.4786 89.8892 30.9718 91.569 33.025 91.569Z" fill="#52525B"/>
<path d="M93.3131 81.9562C92.0065 81.9562 90.6999 81.9562 89.2067 81.9562H88.9267C90.6066 79.0631 90.5133 75.61 88.5534 72.9036C86.5003 70.0105 82.7672 68.7039 79.3142 69.7305C77.261 70.3838 75.2079 70.3838 73.0614 69.7305C70.9149 69.0772 68.6751 69.2639 66.7152 70.3838C64.7554 71.5037 63.2622 73.2769 62.6089 75.5167C61.9556 77.7565 62.2356 79.903 63.4488 81.9562H62.0489C61.0223 81.9562 60.0891 81.9562 59.1558 81.9562H58.9692C58.3159 81.9562 56.916 81.9562 56.916 83.5427C56.916 84.0093 57.0093 84.3826 57.2893 84.6626C57.756 85.1292 58.5026 85.1292 59.1558 85.1292C60.3691 85.1292 61.5823 85.1292 62.8889 85.1292H64.1021C64.0088 85.4092 63.9155 85.6892 63.8221 85.9692C62.4222 90.6355 63.1688 94.7418 66.0619 98.1948C66.5286 98.7548 67.3685 99.5947 68.4884 99.5947C68.8617 99.5947 69.3283 99.5014 69.795 99.3148C71.1949 98.6615 71.6615 97.3549 71.1949 95.6751C70.6349 93.4352 71.1015 91.2887 72.7814 89.2356C73.6213 88.209 74.7412 87.649 76.0478 87.649C77.3543 87.649 78.5676 88.209 79.3142 89.2356C81.0874 91.2887 81.554 93.5286 80.9941 95.955C80.6208 97.5416 81.0874 98.7548 82.4873 99.4081C84.3538 100.248 85.567 98.9414 85.9403 98.5681C86.9669 97.4482 87.8068 96.1417 88.2734 94.6485C89.3 91.5687 89.2067 88.489 87.9935 85.3159H88.9267C90.3266 85.3159 91.6332 85.3159 93.0331 85.3159C93.593 85.3159 95.0862 85.3159 95.0862 83.7294C95.0862 83.2627 94.9929 82.8894 94.7129 82.6095C94.5263 81.9562 93.873 81.9562 93.3131 81.9562ZM85.6603 81.0229C85.287 81.3962 85.1004 81.6762 84.8204 81.9562C83.3272 83.0761 83.8872 84.2893 84.4471 85.0359C86.5936 88.0223 86.5003 92.502 84.4471 95.4884C85.1004 90.8221 82.2073 85.8758 78.1943 84.7559C77.4477 84.5693 76.7944 84.476 76.0478 84.476C74.0879 84.476 72.4081 85.2226 70.9149 86.8091C68.5817 89.2356 67.6485 92.222 68.0218 95.5817C66.9952 94.0885 66.4352 92.3153 66.4352 90.2622C66.4352 88.7689 66.6219 86.9958 67.6485 85.6892C69.235 83.7294 68.2084 82.5161 67.1818 81.4895C65.5953 79.9963 65.222 78.2231 65.8753 76.17C66.5286 74.0235 68.5817 72.6236 70.7282 72.6236C71.1949 72.6236 71.6615 72.7169 72.2214 72.8102C75.0212 73.6502 77.7277 73.6502 80.5274 72.8102C82.5806 72.157 84.9137 72.9969 86.127 74.9567C87.4335 76.9166 87.2469 79.2497 85.6603 81.0229Z" fill="#52525B"/>
<path d="M83.4208 62.9178H85.4739C86.7805 62.9178 88.0871 62.9178 89.4869 62.9178C90.8868 62.9178 90.8868 62.9178 90.8868 64.2244C90.8868 65.5309 90.8868 66.8375 90.8868 68.1441V70.4772C90.8868 71.1305 91.0735 71.6904 91.4468 71.9704C91.6334 72.1571 92.0067 72.4371 92.5667 72.4371C93.1266 72.4371 93.4999 72.1571 93.6866 71.9704C94.0599 71.5971 94.1532 71.1305 94.1532 70.4772C94.1532 69.7306 94.1532 68.984 94.1532 68.2374V66.0909C94.1532 65.3443 94.1532 64.5977 94.1532 63.8511C94.0599 61.5179 92.66 60.0247 90.4202 59.8381C88.5537 59.7448 86.7805 59.7448 85.0073 59.7448H83.4208C82.9541 59.7448 82.3009 59.8381 81.9276 60.2114C81.6476 60.4914 81.5543 60.8647 81.5543 61.4246C81.4609 62.9178 82.8608 62.9178 83.4208 62.9178Z" fill="#52525B"/>
<path d="M73.2482 62.9178C73.7148 62.9178 74.0881 62.9178 74.5547 62.9178H75.5813H75.9546H76.3279C76.9812 62.9178 77.5411 62.9178 78.1944 62.9178C79.1277 62.9178 79.781 62.2646 79.781 61.238C79.781 60.398 79.1277 59.7448 78.2878 59.7448C77.4478 59.7448 76.6079 59.7448 75.768 59.7448C74.928 59.7448 73.9948 59.7448 73.1548 59.7448C72.5949 59.7448 72.2216 59.9314 71.8483 60.2114C71.5683 60.4914 71.475 60.8647 71.475 61.3313C71.475 62.3579 72.2216 62.9178 73.2482 62.9178Z" fill="#52525B"/>
<path d="M80.2477 74.3038C79.8744 74.1172 79.4078 74.0239 78.8478 74.2105C77.0747 74.6771 75.3015 74.6771 73.6216 74.2105C72.6884 73.9305 71.8484 74.3038 71.5684 75.1438C71.4751 75.5171 71.1951 76.637 72.7817 77.1969C73.9949 77.5702 75.1148 77.7569 76.3281 77.8502C77.3546 77.8502 78.4745 77.6636 79.6878 77.2903C81.181 76.8236 81.0877 75.7037 80.9943 75.3304C80.8077 74.8638 80.621 74.4905 80.2477 74.3038Z" fill="#52525B"/>
</svg>
