<svg width="600" height="550" viewBox="0 0 600 527" fill="none" xmlns="http://www.w3.org/2000/svg">
<rect width="600" height="527" rx="40" fill="url(#paint0_linear_106_497)"/>
<path d="M533.974 170.477C515.641 137.158 497.164 115.488 468.718 92.4589C435.115 68.0041 417.474 60.261 385.641 50.1065C318.318 34.4945 278.962 33.8038 203.334 59.7267C120.531 97.6172 56.4613 169.74 60.0006 277.47C63.5395 385.203 162.795 468.507 263.846 485.948C396.108 501.704 489.177 438.548 529.541 364.557C531.364 361.124 533.141 357.633 534.872 354.08C533.213 357.593 531.433 361.086 529.541 364.557C477.418 462.716 387.844 512.265 263.846 506.598C93.8157 486.839 28.2057 370.622 21.7953 275.711C21.6104 164.156 85.1954 80.7666 177.565 41.5422C268.59 3.4132 362.051 22.6536 408.462 46.5869C472.159 80.1335 500.364 106.528 533.974 170.477Z" fill="white"/>
<path d="M533.974 170.476C515.641 137.158 497.164 115.488 468.718 92.4589C435.115 68.0041 417.474 60.261 385.641 50.1065C318.318 34.4945 278.962 33.8038 203.334 59.7267C120.531 97.6172 56.4613 169.739 60.0006 277.47C63.5395 385.203 162.795 468.507 263.846 485.947C402.313 502.44 497.821 432.45 534.872 354.08C483.641 459.184 392.179 512.464 263.846 506.598C93.8157 486.839 28.2057 370.622 21.7953 275.711C21.6104 164.156 85.1954 80.7666 177.565 41.5422C268.59 3.4132 362.051 22.6536 408.462 46.5869C472.159 80.1335 500.364 106.528 533.974 170.476Z" stroke="white"/>
<path d="M539.616 185.259L535.128 208.019L511.282 211.773L535.769 215.527L539.616 237.349L543.846 215.527L568.462 211.773L543.846 207.432L539.616 185.259Z" fill="white" stroke="white"/>
<path d="M493.27 140.912L492.144 146.551L486.154 147.481L492.303 148.411L493.27 153.817L494.331 148.411L500.513 147.481L494.331 146.405L493.27 140.912Z" fill="white" stroke="white"/>
<path d="M560.871 134.577L558.174 148.52L543.846 150.82L558.561 153.12L560.871 166.488L563.415 153.12L578.205 150.82L563.415 148.161L560.871 134.577Z" fill="white" stroke="white"/>
<path d="M270 356.898C262.423 395.954 267.146 456.373 268.513 468.042C268.557 468.422 268.59 468.673 268.608 468.811C268.636 468.98 268.634 468.994 268.608 468.811C268.575 468.596 268.493 468.129 268.357 467.497L262.18 439.022L258.334 411.686C256.091 391.334 256.319 379.93 259.616 359.596C261.531 348.46 263.734 342.385 268.888 333.359C269.618 332.078 270.5 330.872 271.49 329.748L273.382 327.603C275.377 325.336 277.882 323.492 280.729 322.19L280.954 322.087C282.364 321.441 283.854 320.949 285.39 320.625C289.631 319.724 294.075 320.113 298.054 321.73L300 322.521C301.536 323.147 303 323.908 304.372 324.794L307.316 326.695C308.336 327.354 309.3 328.079 310.205 328.868L315.277 333.284C316.287 334.164 317.218 335.119 318.059 336.137L325.513 345.166L334.744 358.658L342.308 372.619L349.872 388.809L356.154 404.999L362.564 422.597L343.205 382.591L331.923 362.412L320.785 346.963C319.921 345.767 318.941 344.645 317.857 343.615L312.09 338.131C310.449 336.571 308.58 335.227 306.536 334.135L302.593 332.031C299.167 330.203 295.175 329.466 291.241 329.94C285.839 330.59 281.057 333.457 278.246 337.73L276.295 340.694C275.518 341.874 274.859 343.113 274.321 344.399L272.18 349.507L270 356.898Z" fill="white"/>
<path d="M270 356.898C262.423 395.954 267.146 456.373 268.513 468.042C268.69 469.567 268.682 469.001 268.357 467.497L262.18 439.022L258.334 411.686C256.091 391.334 256.319 379.93 259.616 359.596C261.531 348.46 263.734 342.385 268.888 333.359C269.618 332.078 270.5 330.872 271.49 329.748L273.382 327.603C275.377 325.336 277.882 323.492 280.729 322.19L280.954 322.087C282.364 321.441 283.854 320.949 285.39 320.625C289.631 319.724 294.075 320.113 298.054 321.73L300 322.521C301.536 323.147 303 323.908 304.372 324.794L307.316 326.695C308.336 327.354 309.3 328.079 310.205 328.868L315.277 333.284C316.287 334.164 317.218 335.119 318.059 336.137L325.513 345.166L334.744 358.658L342.308 372.619L349.872 388.809L356.154 404.999L362.564 422.597L343.205 382.591L331.923 362.412L320.785 346.963C319.921 345.767 318.941 344.645 317.857 343.615L312.09 338.131C310.449 336.571 308.58 335.227 306.536 334.135L302.593 332.031C299.167 330.203 295.175 329.466 291.241 329.94C285.839 330.59 281.057 333.457 278.246 337.73L276.295 340.694C275.518 341.874 274.859 343.113 274.321 344.399L272.18 349.507L270 356.898Z" stroke="white"/>
<path d="M331.923 155.577C331.923 155.577 305 162.734 278.975 157.924C286.267 162.305 291.521 164.516 305.257 167.544C314.616 168.952 323.152 169.137 333.975 168.248C347.682 166.598 355.403 165.411 369.231 162.851C388.295 160.556 399.711 158.265 409.487 168.834C420 185.846 422.852 205.051 416.539 263.512C413.934 281.047 411.998 290.819 408.205 308.211C404.564 321.986 402.895 329.931 398.205 343.876C393.516 357.818 370.875 421.678 372.949 417.67C398.736 372.443 411.68 345.767 430.257 294.25C432.769 286.91 434.069 282.802 436.282 275.479C438.772 266.088 440.131 260.68 442.436 250.607C445.805 234.088 447.285 224.678 448.975 207.55C449.405 197.653 449.367 192.105 448.975 182.209C446.975 167.983 445.641 163.322 443.077 157.924C439.523 150.138 436.544 146.512 429.616 141.264C421.482 136.857 416.146 135.592 405.128 135.633C394.687 136.258 388.159 137.33 373.975 141.968C357.944 147.867 348.762 150.885 331.923 155.577Z" fill="white" stroke="white"/>
<path d="M228.462 147.013C243.975 161.912 270.898 184.32 306.539 187.253C297.562 188.253 292.229 188.329 282.18 187.605C262.775 186.095 251.897 182.716 232.437 173.41C212.973 163.753 202.414 158.81 190.642 159.448C182.396 161.68 177.652 163.327 168.59 171.415C158.665 182.67 155.781 190.87 153.719 207.667C153.186 231.873 157.28 247.038 165.514 274.422L190.385 334.959L251.924 463.19C218.079 416.64 197.734 391.411 169.36 338.479C140.463 278.728 130.16 248.976 127.308 208.957C125.934 181.064 128.721 167.753 140.257 150.063C153.975 131.878 164.227 126.584 186.667 126.716C201.628 127.908 210.969 133.289 228.462 147.013Z" fill="white" stroke="white"/>
<defs>
<linearGradient id="paint0_linear_106_497" x1="0" y1="0" x2="582.04" y2="522.155" gradientUnits="userSpaceOnUse">
<stop stop-color="#09809D"/>
<stop offset="0.997793" stop-color="#032D37"/>
</linearGradient>
</defs>
</svg>
